<?xml version="1.0" encoding="UTF-8" standalone="no"?>
<svg
   xmlns:dc="http://purl.org/dc/elements/1.1/"
   xmlns:cc="http://creativecommons.org/ns#"
   xmlns:rdf="http://www.w3.org/1999/02/22-rdf-syntax-ns#"
   xmlns:svg="http://www.w3.org/2000/svg"
   xmlns="http://www.w3.org/2000/svg"
   xmlns:sodipodi="http://sodipodi.sourceforge.net/DTD/sodipodi-0.dtd"
   xmlns:inkscape="http://www.inkscape.org/namespaces/inkscape"
   version="1.1"
   id="svg2"
   xml:space="preserve"
   width="666.66669"
   height="800"
   viewBox="0 0 666.66669 800"
   sodipodi:docname="nowe_logotyp_ptpipn.ai"><metadata
     id="metadata8"><rdf:RDF><cc:Work
         rdf:about=""><dc:format>image/svg+xml</dc:format><dc:type
           rdf:resource="http://purl.org/dc/dcmitype/StillImage" /></cc:Work></rdf:RDF></metadata><defs
     id="defs6"><clipPath
       clipPathUnits="userSpaceOnUse"
       id="clipPath18"><path
         d="M 0,600 H 500 V 0 H 0 Z"
         id="path16" /></clipPath><clipPath
       clipPathUnits="userSpaceOnUse"
       id="clipPath54"><path
         d="M 0,600 H 500 V 0 H 0 Z"
         id="path52" /></clipPath></defs><sodipodi:namedview
     pagecolor="#ffffff"
     bordercolor="#666666"
     borderopacity="1"
     objecttolerance="10"
     gridtolerance="10"
     guidetolerance="10"
     inkscape:pageopacity="0"
     inkscape:pageshadow="2"
     inkscape:window-width="640"
     inkscape:window-height="480"
     id="namedview4" /><g
     id="g10"
     inkscape:groupmode="layer"
     inkscape:label="nowe_logotyp_ptpipn"
     transform="matrix(1.3333333,0,0,-1.3333333,0,800)"><g
       id="g12"><g
         id="g14"
         clip-path="url(#clipPath18)"><g
           id="g20"
           transform="translate(309.9209,452.3287)"><path
             d="m 0,0 c 52.166,28.324 168.917,22.362 149.386,-95.131 0,0 -14.407,-110.506 -129.489,-200.428 -17.801,-14.867 -56.841,-37.826 -108.579,-36.608 -21.114,0.497 34.839,-42.736 121.41,20.374 127.824,93.185 145.159,204.878 146.552,224.972 3.973,57.284 -16.511,85.014 -16.511,85.014 23.223,48.131 19.141,87.805 20.4,97 4.819,35.199 -199.533,51.183 -206.396,13.233 C -25.848,93.929 -26.394,45.33 -17.032,12.857 -14.145,2.84 -4.688,-2.546 0,0"
             style="fill:#231f20;fill-opacity:1;fill-rule:nonzero;stroke:none"
             id="path22" /></g><g
           id="g24"
           transform="translate(197.4951,449.2325)"><path
             d="m 0,0 c -16.021,6.46 -36.547,12.92 -36.547,12.92 -132.171,30.164 -123.02,-83.341 -111.161,-125.112 31.041,-109.324 141.624,-193.439 177.522,-196.495 44.265,-3.768 48.473,12.684 68.813,16.771 5.599,1.125 -23.029,-45.717 -90.916,-28.35 -79.102,22.362 -175.428,135.19 -193.451,214.202 -19.706,86.387 32.593,133.962 32.593,133.962 -11.739,18.236 -14.069,71.27 -14.069,71.27 3.9,55.409 182.236,36.734 203.763,17.393 C 64.673,101.48 38.345,38.819 20.796,12.423 16.593,6.101 7.071,-2.851 0,0"
             style="fill:#231f20;fill-opacity:1;fill-rule:nonzero;stroke:none"
             id="path26" /></g><g
           id="g28"
           transform="translate(50.7891,548.0176)"><path
             d="m 0,0 c -5.194,-10.833 6.709,-66.087 13.518,-63.94 67.302,21.227 120.852,1.309 139.693,-11.251 5.87,-3.913 32.258,71.241 24.018,78.336 C 146.097,29.951 11.515,24.016 0,0"
             style="fill:#ffffff;fill-opacity:1;fill-rule:nonzero;stroke:none"
             id="path30" /></g><g
           id="g32"
           transform="translate(50.0352,529.9478)"><path
             d="m 0,0 c -0.865,-0.545 3.557,-27.285 4.996,-26.734 53.784,20.596 122.462,16.45 162.381,-6.415 1.262,-0.723 11.199,32.441 10.079,33.201 C 131.227,31.432 36.476,22.998 0,0"
             style="fill:#231f20;fill-opacity:1;fill-rule:nonzero;stroke:none"
             id="path34" /></g><g
           id="g36"
           transform="translate(301.8271,550.5172)"><path
             d="m 0,0 c -4.264,-19.021 1.614,-77.791 10.226,-75.33 57.468,16.421 95.034,17.596 141.798,-13.044 9.502,-6.225 25.088,74.02 17.905,83.602 C 151.651,19.608 6.841,30.527 0,0"
             style="fill:#ffffff;fill-opacity:1;fill-rule:nonzero;stroke:none"
             id="path38" /></g><g
           id="g40"
           transform="translate(472.6895,519.503)"><path
             d="m 0,0 c 0.901,-1.155 -4.624,-30.177 -5.196,-29.652 -31.575,28.957 -127.58,33.062 -164.329,7.638 -1.337,-0.924 -3.99,26.41 -2.634,27.857 C -146.081,33.671 -21.162,27.143 0,0"
             style="fill:#bf1e2d;fill-opacity:1;fill-rule:nonzero;stroke:none"
             id="path42" /></g><g
           id="g44"
           transform="translate(285.2607,332.6089)"><path
             d="m 0,0 c -3.122,15.612 18.272,99.4 110.348,65.478 64.435,-23.739 55.304,-169.043 -73.134,-123.639 -5.071,1.793 -41.038,-71.831 -89.279,-82.988 -42.444,-9.818 -116.124,50.116 -130.543,73.975 -9.908,16.394 -33.106,44.977 -20.686,72.498 14.759,32.704 100.331,-22.749 122.933,-17.242 17.899,4.361 30.204,49.519 43.256,44.938 16.801,-5.897 21.186,-43.797 39.975,-53.107 17.542,-8.692 -9.402,-9.78 -16.928,-1.663 -14.432,15.569 -22.239,38.559 -29.401,36.154 -7.015,-2.356 -21.287,-44.463 -30.834,-46.43 -11.917,-2.455 -89.238,37.779 -112.609,29.097 -13.65,-5.071 6.252,-44.884 20.337,-63.071 23.159,-29.904 84.042,-69.562 116.659,-57.535 48.973,18.056 62.878,82.605 88.521,78.704 39.551,-6.019 60.573,-12.203 81.728,16.251 11.522,15.5 14.76,49.757 -5.588,70.033 C 84.818,71.283 2.87,52.956 5.479,-7.305 5.619,-10.558 2.87,-14.348 0,0"
             style="fill:#231f20;fill-opacity:1;fill-rule:nonzero;stroke:none"
             id="path46" /></g></g></g><g
       id="g48"><g
         id="g50"
         clip-path="url(#clipPath54)"><g
           aria-label="PTPiPN"
           transform="matrix(1,0,0,-1,69.4297,14.7725)"
           id="text58"
           style="font-variant:normal;font-weight:500;font-stretch:normal;font-size:106px;font-family:'Lato Medium';-inkscape-font-specification:Lato-Medium;writing-mode:lr-tb;fill:#231f20;fill-opacity:1;fill-rule:nonzero;stroke:none"><path
             d="m 32.436,-36.941 q 4.293,0 7.526,-1.113 3.286,-1.113 5.459,-3.127 2.226,-2.067 3.339,-4.876 1.113,-2.862 1.113,-6.307 0,-6.943 -4.346,-10.918 -4.293,-3.975 -13.091,-3.975 H 20.67 v 30.316 z m 0,-39.167 q 7.314,0 12.72,1.696 5.406,1.696 8.957,4.823 3.551,3.074 5.247,7.473 1.749,4.399 1.749,9.752 0,5.353 -1.855,9.858 -1.855,4.452 -5.459,7.685 -3.604,3.233 -9.01,5.035 -5.353,1.749 -12.349,1.749 H 20.67 V 0 H 9.381 v -76.108 z"
             id="path60" /><path
             d="M 125.398,-66.674 H 101.23 V 0 H 89.993997 v -66.674 h -24.274 v -9.434 H 125.398 Z"
             id="path62" /><path
             d="m 159.424,-36.941 q 4.293,0 7.526,-1.113 3.286,-1.113 5.459,-3.127 2.226,-2.067 3.339,-4.876 1.113,-2.862 1.113,-6.307 0,-6.943 -4.346,-10.918 -4.293,-3.975 -13.091,-3.975 h -11.766 v 30.316 z m 0,-39.167 q 7.314,0 12.72,1.696 5.406,1.696 8.957,4.823 3.551,3.074 5.247,7.473 1.749,4.399 1.749,9.752 0,5.353 -1.855,9.858 -1.855,4.452 -5.459,7.685 -3.604,3.233 -9.01,5.035 -5.353,1.749 -12.349,1.749 H 147.658 V 0 h -11.289 v -76.108 z"
             id="path64" /><path
             d="M 208.926,-53.848 V 0 h -10.335 v -53.848 z m 1.961,-16.642 q 0,1.431 -0.583,2.756 -0.583,1.272 -1.59,2.279 -0.954,0.954 -2.279,1.537 -1.325,0.53 -2.756,0.53 -1.431,0 -2.703,-0.53 -1.272,-0.583 -2.279,-1.537 -0.954,-1.007 -1.537,-2.279 -0.53,-1.325 -0.53,-2.756 0,-1.484 0.53,-2.756 0.583,-1.325 1.537,-2.279 1.007,-1.007 2.279,-1.537 1.272,-0.583 2.703,-0.583 1.431,0 2.756,0.583 1.325,0.53 2.279,1.537 1.007,0.954 1.59,2.279 0.583,1.272 0.583,2.756 z"
             id="path66" /><path
             d="m 248.305,-36.941 q 4.293,0 7.526,-1.113 3.286,-1.113 5.459,-3.127 2.226,-2.067 3.339,-4.876 1.113,-2.862 1.113,-6.307 0,-6.943 -4.346,-10.918 -4.293,-3.975 -13.091,-3.975 h -11.766 v 30.316 z m 0,-39.167 q 7.314,0 12.72,1.696 5.406,1.696 8.957,4.823 3.551,3.074 5.247,7.473 1.749,4.399 1.749,9.752 0,5.353 -1.855,9.858 -1.855,4.452 -5.459,7.685 -3.604,3.233 -9.01,5.035 -5.353,1.749 -12.349,1.749 H 236.539 V 0 H 225.25 v -76.108 z"
             id="path68" /><path
             d="M 351.70799,-76.108 V 0 h -5.724 q -1.325,0 -2.226,-0.477 -0.848,-0.477 -1.749,-1.537 l -42.983,-55.597 q 0.106,1.431 0.159,2.809 0.106,1.378 0.106,2.597 V 0 h -9.911 v -76.108 h 5.83 q 1.484,0 2.226,0.371 0.742,0.318 1.643,1.537 l 43.089,55.65 q -0.159,-1.537 -0.265,-2.968 -0.053,-1.484 -0.053,-2.756 v -51.834 z"
             id="path70" /></g></g></g></g></svg>
